# Blender v3.2.1 OBJ File: 'PineTree.blend'
# www.blender.org
mtllib PineTree.mtl
o Cone
v -0.023801 4.534855 -1.000000
v 0.683305 4.534855 -0.707107
v 0.976199 4.534855 0.000000
v 0.683305 4.534855 0.707107
v -0.023801 4.534855 1.000000
v -0.730908 4.534855 0.707107
v -1.023801 4.534855 -0.000000
v -0.730908 4.534855 -0.707107
v -0.023801 6.534855 0.000000
vt 0.250000 0.490000
vt 0.250000 0.250000
vt 0.419706 0.419706
vt 0.490000 0.250000
vt 0.419706 0.080294
vt 0.250000 0.010000
vt 0.080294 0.080294
vt 0.010000 0.250000
vt 0.919706 0.080294
vt 0.580294 0.080294
vt 0.580294 0.419706
vt 0.080294 0.419706
vt 0.750000 0.490000
vt 0.919706 0.419706
vt 0.990000 0.250000
vt 0.750000 0.010000
vt 0.510000 0.250000
vn 0.3474 0.4194 -0.8387
vn 0.8387 0.4194 -0.3474
vn 0.8387 0.4194 0.3474
vn 0.3474 0.4194 0.8387
vn -0.3474 0.4194 0.8387
vn -0.8387 0.4194 0.3474
vn 0.0000 -1.0000 -0.0000
vn -0.8387 0.4194 -0.3474
vn -0.3474 0.4194 -0.8387
usemtl Tree.Top.Material
s off
f 1/1/1 9/2/1 2/3/1
f 2/3/2 9/2/2 3/4/2
f 3/4/3 9/2/3 4/5/3
f 4/5/4 9/2/4 5/6/4
f 5/6/5 9/2/5 6/7/5
f 6/7/6 9/2/6 7/8/6
f 4/9/7 6/10/7 8/11/7
f 7/8/8 9/2/8 8/12/8
f 8/12/9 9/2/9 1/1/9
f 8/11/7 1/13/7 2/14/7
f 2/14/7 3/15/7 4/9/7
f 4/9/7 5/16/7 6/10/7
f 6/10/7 7/17/7 8/11/7
f 8/11/7 2/14/7 4/9/7
o Cone.001
v 0.710343 3.701984 -1.383673
v 1.458996 3.701984 -0.484562
v 1.351117 3.701984 0.698399
v 0.449900 3.701984 1.472247
v -0.716735 3.701984 1.383673
v -1.465388 3.701984 0.484562
v -1.357509 3.701984 -0.698399
v -0.456292 3.701984 -1.472247
v 0.413200 4.534855 -0.807463
v 0.850088 4.534855 -0.282773
v 0.787133 4.534855 0.407560
v 0.261215 4.534855 0.859151
v -0.419592 4.534855 0.807462
v -0.856479 4.534855 0.282773
v -0.793525 4.534855 -0.407561
v -0.267606 4.534855 -0.859151
vt 0.419706 0.419706
vt 0.250000 0.490000
vt 0.250000 0.390055
vt 0.349034 0.349034
vt 0.390055 0.250000
vt 0.490000 0.250000
vt 0.349034 0.150966
vt 0.419706 0.080294
vt 0.250000 0.109945
vt 0.250000 0.010000
vt 0.150966 0.150966
vt 0.080294 0.080294
vt 0.010000 0.250000
vt 0.109945 0.250000
vt 0.919706 0.419706
vt 0.919706 0.080294
vt 0.580294 0.080294
vt 0.080294 0.419706
vt 0.150966 0.349034
vt 0.545212 0.182134
vt 0.650065 0.056209
vt 0.813458 0.043804
vt 0.510000 0.250000
vt 0.580294 0.419706
vt 0.750000 0.490000
vt 0.990000 0.250000
vt 0.750000 0.010000
vt 0.939679 0.152185
vt 0.954788 0.317866
vt 0.849935 0.443791
vt 0.686541 0.456196
vt 0.560321 0.347815
vn 0.6246 0.5826 -0.5201
vn 0.8135 0.5768 0.0742
vn 0.5322 0.5768 0.6198
vn -0.0615 0.5826 0.8104
vn -0.6246 0.5826 0.5201
vn -0.8135 0.5768 -0.0742
vn 0.0000 -1.0000 0.0000
vn -0.5322 0.5768 -0.6198
vn 0.0615 0.5826 -0.8104
vn 0.0000 1.0000 0.0000
usemtl Tree.Top.Material
s off
f 11/18/10 10/19/10 18/20/10 19/21/10
f 20/22/11 12/23/11 11/18/11 19/21/11
f 21/24/12 13/25/12 12/23/12 20/22/12
f 22/26/13 14/27/13 13/25/13 21/24/13
f 23/28/14 15/29/14 14/27/14 22/26/14
f 16/30/15 15/29/15 23/28/15 24/31/15
f 11/32/16 13/33/16 15/34/16
f 17/35/17 16/30/17 24/31/17 25/36/17
f 10/19/18 17/35/18 25/36/18 18/20/18
f 23/37/19 22/38/19 21/39/19
f 15/34/16 16/40/16 17/41/16
f 17/41/16 10/42/16 11/32/16
f 11/32/16 12/43/16 13/33/16
f 13/33/16 14/44/16 15/34/16
f 15/34/16 17/41/16 11/32/16
f 21/39/19 20/45/19 19/46/19
f 19/46/19 18/47/19 21/39/19
f 18/47/19 25/48/19 21/39/19
f 25/48/19 24/49/19 21/39/19
f 24/49/19 23/37/19 21/39/19
o Cone.002
v 0.004516 2.885445 -2.254965
v 1.349792 2.885445 -1.594501
v 1.907023 2.885445 -0.000000
v 1.349792 2.885445 1.594500
v 0.004516 2.885445 2.254964
v -1.340760 2.885445 1.594501
v -1.897991 2.885445 -0.000000
v -1.340760 2.885445 -1.594501
v 0.004516 3.701985 -1.334331
v 0.800556 3.701985 -0.943514
v 1.130287 3.701985 -0.000000
v 0.800556 3.701985 0.943514
v 0.004516 3.701985 1.334330
v -0.791524 3.701985 0.943514
v -1.121255 3.701985 -0.000000
v -0.791524 3.701985 -0.943514
vt 0.419706 0.419706
vt 0.250000 0.490000
vt 0.250000 0.392015
vt 0.350420 0.350420
vt 0.392015 0.250000
vt 0.490000 0.250000
vt 0.350420 0.149580
vt 0.419706 0.080294
vt 0.250000 0.107985
vt 0.250000 0.010000
vt 0.149580 0.149580
vt 0.080294 0.080294
vt 0.010000 0.250000
vt 0.107985 0.250000
vt 0.580294 0.080294
vt 0.580294 0.419706
vt 0.919706 0.419706
vt 0.080294 0.419706
vt 0.149580 0.350420
vt 0.585550 0.166995
vt 0.839465 0.063715
vt 0.900733 0.326081
vt 0.646819 0.429362
vt 0.563597 0.319568
vt 0.699819 0.061017
vt 0.922686 0.173508
vt 0.786465 0.432059
vt 0.510000 0.250000
vt 0.750000 0.490000
vt 0.990000 0.250000
vt 0.919706 0.080294
vt 0.750000 0.010000
vn 0.3097 0.7113 -0.6309
vn 0.7024 0.6681 -0.2455
vn 0.7024 0.6681 0.2455
vn 0.3097 0.7113 0.6309
vn -0.3097 0.7113 0.6309
vn -0.7024 0.6681 0.2455
vn 0.0000 -1.0000 -0.0000
vn -0.7024 0.6681 -0.2455
vn -0.3097 0.7113 -0.6309
vn 0.0000 1.0000 0.0000
usemtl Tree.Top.Material
s off
f 27/50/20 26/51/20 34/52/20 35/53/20
f 36/54/21 28/55/21 27/50/21 35/53/21
f 37/56/22 29/57/22 28/55/22 36/54/22
f 38/58/23 30/59/23 29/57/23 37/56/23
f 39/60/24 31/61/24 30/59/24 38/58/24
f 32/62/25 31/61/25 39/60/25 40/63/25
f 31/64/26 33/65/26 27/66/26
f 33/67/27 32/62/27 40/63/27 41/68/27
f 26/51/28 33/67/28 41/68/28 34/52/28
f 40/69/29 38/70/29 36/71/29
f 34/72/29 41/73/29 40/69/29
f 40/69/29 39/74/29 38/70/29
f 38/70/29 37/75/29 36/71/29
f 36/71/29 35/76/29 34/72/29
f 34/72/29 40/69/29 36/71/29
f 31/64/26 32/77/26 33/65/26
f 33/65/26 26/78/26 27/66/26
f 27/66/26 28/79/26 29/80/26
f 29/80/26 30/81/26 27/66/26
f 30/81/26 31/64/26 27/66/26
o Cone.003
v -0.720329 2.003582 2.655633
v 1.304506 2.003582 2.358411
v 2.554148 2.003582 0.679663
v 2.296573 2.003582 -1.397222
v 0.682665 2.003582 -2.655633
v -1.342170 2.003582 -2.358411
v -2.591812 2.003582 -0.679664
v -2.334237 2.003582 1.397220
v 0.597206 2.885445 1.112819
v -0.350607 2.885445 1.255991
v 1.184153 2.885445 0.317773
v 1.066407 2.885445 -0.663420
v 0.312943 2.885445 -1.255992
v -0.634870 2.885445 -1.112820
v -1.221816 2.885445 -0.317774
v -1.104071 2.885445 0.663420
vt 0.419706 0.419706
vt 0.344877 0.344877
vt 0.250000 0.384176
vt 0.250000 0.490000
vt 0.384176 0.250000
vt 0.490000 0.250000
vt 0.344877 0.155123
vt 0.419706 0.080294
vt 0.250000 0.115824
vt 0.250000 0.010000
vt 0.155123 0.155123
vt 0.080294 0.080294
vt 0.010000 0.250000
vt 0.115824 0.250000
vt 0.510000 0.250000
vt 0.990000 0.250000
vt 0.750000 0.490000
vt 0.080294 0.419706
vt 0.155123 0.344877
vt 0.914875 0.250000
vt 0.640449 0.118832
vt 0.867791 0.118832
vt 0.754120 0.064500
vt 0.593365 0.250000
vt 0.867791 0.381168
vt 0.640449 0.381168
vt 0.754120 0.435500
vt 0.580294 0.419706
vt 0.919706 0.419706
vt 0.750000 0.010000
vt 0.919706 0.080294
vt 0.580294 0.080294
vn 0.0809 0.8340 0.5458
vn 0.4477 0.8301 0.3323
vn 0.5534 0.8302 -0.0679
vn 0.3398 0.8340 -0.4346
vn -0.0809 0.8340 -0.5458
vn -0.4477 0.8301 -0.3323
vn 0.0000 -1.0000 0.0000
vn -0.5534 0.8301 0.0679
vn -0.3398 0.8340 0.4346
vn 0.0000 1.0000 0.0000
usemtl Tree.Top.Material
s off
f 43/82/30 50/83/30 51/84/30 42/85/30
f 52/86/31 50/83/31 43/82/31 44/87/31
f 53/88/32 52/86/32 44/87/32 45/89/32
f 54/90/33 53/88/33 45/89/33 46/91/33
f 55/92/34 54/90/34 46/91/34 47/93/34
f 48/94/35 56/95/35 55/92/35 47/93/35
f 48/96/36 44/97/36 42/98/36
f 49/99/37 57/100/37 56/95/37 48/94/37
f 42/85/38 51/84/38 57/100/38 49/99/38
f 52/101/39 57/102/39 50/103/39
f 51/104/39 50/103/39 57/102/39
f 57/102/39 52/101/39 56/105/39
f 56/105/39 53/106/39 55/107/39
f 55/107/39 53/106/39 54/108/39
f 53/106/39 56/105/39 52/101/39
f 48/96/36 42/98/36 49/109/36
f 42/98/36 44/97/36 43/110/36
f 44/97/36 46/111/36 45/112/36
f 46/111/36 44/97/36 47/113/36
f 47/113/36 44/97/36 48/96/36
o Trunc_Cylinder
v 0.010631 0.011225 -0.447124
v 0.010631 2.011225 -0.447124
v 0.154507 0.011225 -0.415575
v 0.154507 2.011225 -0.415575
v 0.276478 0.011225 -0.325731
v 0.276478 2.011225 -0.325731
v 0.357977 0.011225 -0.191269
v 0.357977 2.011225 -0.191269
v 0.386595 0.011225 -0.032661
v 0.386595 2.011225 -0.032661
v 0.357977 0.011225 0.125947
v 0.357977 2.011225 0.125947
v 0.276478 0.011225 0.260409
v 0.276478 2.011225 0.260409
v 0.154507 0.011225 0.350253
v 0.154507 2.011225 0.350253
v 0.010631 0.011225 0.381803
v 0.010631 2.011225 0.381803
v -0.133244 0.011225 0.350253
v -0.133244 2.011225 0.350253
v -0.255215 0.011225 0.260409
v -0.255215 2.011225 0.260409
v -0.336714 0.011225 0.125947
v -0.336714 2.011225 0.125947
v -0.365332 0.011225 -0.032661
v -0.365332 2.011225 -0.032661
v -0.336714 0.011225 -0.191269
v -0.336714 2.011225 -0.191269
v -0.255215 0.011225 -0.325731
v -0.255215 2.011225 -0.325731
v -0.133244 0.011225 -0.415575
v -0.133244 2.011225 -0.415575
v 0.010631 0.411224 -0.447124
v 0.010631 0.811224 -0.460801
v 0.010631 1.211225 -0.447124
v -0.029019 1.611225 -0.447124
v 0.114856 1.611225 -0.415575
v 0.154507 1.211225 -0.415575
v 0.154507 0.811224 -0.429252
v 0.154507 0.411224 -0.415575
v 0.236827 1.611225 -0.325731
v 0.276478 1.211225 -0.325731
v 0.276478 0.811224 -0.339408
v 0.276478 0.411224 -0.325731
v 0.318326 1.611225 -0.191269
v 0.357977 1.211225 -0.191269
v 0.357977 0.811224 -0.204946
v 0.357977 0.411224 -0.191269
v 0.346945 1.611225 -0.032661
v 0.386595 1.211225 -0.032661
v 0.386595 0.811224 -0.046338
v 0.386595 0.411224 -0.032661
v 0.318326 1.611225 0.125947
v 0.357977 1.211225 0.125947
v 0.357977 0.811224 0.112271
v 0.357977 0.411224 0.125947
v 0.236827 1.611225 0.308047
v 0.276478 1.211225 0.260409
v 0.276478 0.811224 0.246732
v 0.276478 0.411224 0.260409
v 0.114856 1.611225 0.397891
v 0.154507 1.211225 0.350253
v 0.154507 0.811224 0.336577
v 0.154507 0.411224 0.350253
v -0.029019 1.611225 0.429440
v 0.010631 1.211225 0.381803
v 0.010631 0.811224 0.368126
v 0.010631 0.411224 0.381803
v -0.172894 1.611225 0.397891
v -0.133244 1.211225 0.350253
v -0.150186 0.845421 0.345201
v -0.133244 0.411224 0.350253
v -0.294866 1.611225 0.260409
v -0.255215 1.211225 0.260409
v -0.272157 0.845421 0.255357
v -0.255215 0.411224 0.260409
v -0.376364 1.611225 0.125947
v -0.336714 1.211225 0.125947
v -0.353656 0.845421 0.120895
v -0.336714 0.411224 0.125947
v -0.404983 1.611225 -0.032661
v -0.378200 1.164910 -0.057824
v -0.365332 0.811224 -0.046338
v -0.365332 0.411224 -0.032661
v -0.376364 1.611225 -0.191269
v -0.349581 1.201865 -0.212067
v -0.368288 0.801334 -0.191801
v -0.336714 0.411224 -0.191269
v -0.294866 1.611225 -0.325731
v -0.268083 1.233194 -0.342828
v -0.255215 0.811224 -0.339408
v -0.286789 0.401334 -0.312586
v -0.172894 1.611225 -0.415575
v -0.133244 1.211225 -0.415575
v -0.133244 0.811224 -0.429252
v -0.164818 0.401334 -0.402431
vt 1.000000 0.900000
vt 1.000000 1.000000
vt 0.937500 1.000000
vt 0.937500 0.900000
vt 0.875000 1.000000
vt 0.875000 0.900000
vt 0.812500 1.000000
vt 0.812500 0.900000
vt 0.750000 1.000000
vt 0.750000 0.900000
vt 0.687500 1.000000
vt 0.687500 0.900000
vt 0.625000 1.000000
vt 0.625000 0.900000
vt 0.562500 1.000000
vt 0.562500 0.900000
vt 0.500000 1.000000
vt 0.500000 0.900000
vt 0.437500 1.000000
vt 0.437500 0.900000
vt 0.375000 1.000000
vt 0.375000 0.900000
vt 0.312500 1.000000
vt 0.312500 0.900000
vt 0.250000 1.000000
vt 0.250000 0.900000
vt 0.187500 1.000000
vt 0.187500 0.900000
vt 0.125000 1.000000
vt 0.125000 0.900000
vt 0.419706 0.419706
vt 0.080294 0.419706
vt 0.080294 0.080294
vt 0.062500 1.000000
vt 0.062500 0.900000
vt 0.000000 1.000000
vt 0.000000 0.900000
vt 0.971731 0.341844
vt 0.841844 0.028269
vt 0.528269 0.158156
vt 0.062500 0.500000
vt 0.062500 0.600000
vt 0.000000 0.600000
vt 0.000000 0.500000
vt 0.062500 0.700000
vt 0.000000 0.700000
vt 0.062500 0.800000
vt 0.000000 0.800000
vt 0.125000 0.500000
vt 0.125000 0.600000
vt 0.125000 0.700000
vt 0.125000 0.800000
vt 0.187500 0.500000
vt 0.187500 0.600000
vt 0.187500 0.700000
vt 0.187500 0.800000
vt 0.250000 0.500000
vt 0.250000 0.600000
vt 0.250000 0.700000
vt 0.250000 0.800000
vt 0.312500 0.500000
vt 0.312500 0.600000
vt 0.312500 0.700000
vt 0.312500 0.800000
vt 0.375000 0.500000
vt 0.375000 0.600000
vt 0.375000 0.700000
vt 0.375000 0.800000
vt 0.437500 0.500000
vt 0.437500 0.600000
vt 0.437500 0.700000
vt 0.437500 0.800000
vt 0.500000 0.500000
vt 0.500000 0.600000
vt 0.500000 0.700000
vt 0.500000 0.800000
vt 0.562500 0.500000
vt 0.562500 0.600000
vt 0.562500 0.700000
vt 0.562500 0.800000
vt 0.625000 0.500000
vt 0.625000 0.600000
vt 0.625000 0.700000
vt 0.625000 0.800000
vt 0.687500 0.500000
vt 0.687500 0.600000
vt 0.687500 0.700000
vt 0.687500 0.800000
vt 0.750000 0.500000
vt 0.750000 0.600000
vt 0.750000 0.700000
vt 0.750000 0.800000
vt 0.812500 0.500000
vt 0.812500 0.600000
vt 0.812500 0.700000
vt 0.812500 0.800000
vt 0.875000 0.500000
vt 0.875000 0.600000
vt 0.875000 0.700000
vt 0.875000 0.800000
vt 0.937500 0.500000
vt 0.937500 0.600000
vt 0.937500 0.700000
vt 0.937500 0.800000
vt 1.000000 0.500000
vt 1.000000 0.600000
vt 1.000000 0.700000
vt 1.000000 0.800000
vt 0.658156 0.471731
vt 0.750000 0.490000
vt 0.841844 0.471731
vt 0.919706 0.419706
vt 0.990000 0.250000
vt 0.971731 0.158156
vt 0.919706 0.080294
vt 0.750000 0.010000
vt 0.658156 0.028269
vt 0.580294 0.080294
vt 0.510000 0.250000
vt 0.528269 0.341844
vt 0.580294 0.419706
vt 0.341844 0.471731
vt 0.250000 0.490000
vt 0.158156 0.471731
vt 0.028269 0.341844
vt 0.010000 0.250000
vt 0.028269 0.158156
vt 0.158156 0.028269
vt 0.250000 0.010000
vt 0.341844 0.028269
vt 0.419706 0.080294
vt 0.471731 0.158156
vt 0.490000 0.250000
vt 0.471731 0.341844
vn 0.2141 -0.0212 -0.9766
vn 0.5921 -0.0587 -0.8038
vn 0.8521 -0.0845 -0.5165
vn 0.9795 -0.0971 -0.1767
vn 0.9795 -0.0971 0.1767
vn 0.8874 -0.0608 0.4569
vn 0.5927 0.0371 0.8046
vn 0.2132 0.0947 0.9724
vn -0.2122 0.1363 0.9677
vn -0.6776 0.1105 0.7271
vn -0.8521 0.0845 0.5165
vn -0.9795 0.0971 0.1767
vn -0.9795 0.0971 -0.1767
vn -0.8521 0.0845 -0.5165
vn 0.0000 1.0000 0.0000
vn -0.5921 0.0587 -0.8038
vn -0.2141 0.0212 -0.9766
vn 0.0000 -1.0000 0.0000
vn -0.2324 0.0069 -0.9726
vn -0.2309 -0.0396 -0.9722
vn -0.2141 0.0334 -0.9762
vn -0.2141 -0.0212 -0.9766
vn -0.5929 -0.0209 -0.8050
vn -0.5931 -0.0070 -0.8051
vn -0.5348 0.0022 -0.8450
vn -0.5364 -0.0273 -0.8435
vn -0.8895 -0.0280 -0.4560
vn -0.8550 -0.0177 -0.5183
vn -0.8188 -0.0107 -0.5739
vn -0.8498 -0.0325 -0.5261
vn -0.9841 0.0000 -0.1776
vn -0.9957 -0.0413 -0.0827
vn -0.9964 0.0041 -0.0849
vn -0.9813 -0.0515 -0.1856
vn -0.9841 0.0000 0.1776
vn -0.9921 -0.0174 0.1245
vn -0.9889 0.0069 0.1482
vn -0.9741 -0.0827 0.2106
vn -0.8552 0.0000 0.5183
vn -0.8549 -0.0273 0.5181
vn -0.8547 0.0324 0.5181
vn -0.8521 -0.0845 0.5165
vn -0.5931 0.0000 0.8051
vn -0.5930 -0.0138 0.8051
vn -0.5930 0.0163 0.8050
vn -0.6776 -0.1105 0.7271
vn -0.2142 0.0000 0.9768
vn -0.1739 0.0186 0.9846
vn -0.1781 -0.0201 0.9838
vn -0.2122 -0.1363 0.9677
vn 0.2142 0.0000 0.9768
vn 0.2141 0.0334 0.9762
vn 0.2141 -0.0334 0.9762
vn 0.2132 -0.0947 0.9724
vn 0.5931 0.0000 0.8051
vn 0.5928 0.0275 0.8048
vn 0.5928 -0.0275 0.8048
vn 0.5927 -0.0371 0.8046
vn 0.8552 0.0000 0.5183
vn 0.8550 0.0177 0.5183
vn 0.8550 -0.0177 0.5183
vn 0.8874 0.0608 0.4569
vn 0.9841 0.0000 0.1776
vn 0.9841 0.0061 0.1776
vn 0.9841 -0.0061 0.1776
vn 0.9795 0.0971 0.1767
vn 0.9841 0.0000 -0.1776
vn 0.9841 -0.0061 -0.1776
vn 0.9841 0.0061 -0.1776
vn 0.9795 0.0971 -0.1767
vn 0.8552 0.0000 -0.5183
vn 0.8550 -0.0177 -0.5183
vn 0.8550 0.0177 -0.5183
vn 0.8521 0.0845 -0.5165
vn 0.5931 0.0000 -0.8051
vn 0.5928 -0.0275 -0.8048
vn 0.5928 0.0275 -0.8048
vn 0.5921 0.0587 -0.8038
vn 0.2142 0.0000 -0.9768
vn 0.2141 -0.0334 -0.9762
vn 0.2141 0.0334 -0.9762
vn 0.2141 0.0212 -0.9766
usemtl Trunc.Material
s off
f 93/114/40 59/115/40 61/116/40 94/117/40
f 94/117/41 61/116/41 63/118/41 98/119/41
f 98/119/42 63/118/42 65/120/42 102/121/42
f 102/121/43 65/120/43 67/122/43 106/123/43
f 106/123/44 67/122/44 69/124/44 110/125/44
f 110/125/45 69/124/45 71/126/45 114/127/45
f 114/127/46 71/126/46 73/128/46 118/129/46
f 118/129/47 73/128/47 75/130/47 122/131/47
f 122/131/48 75/130/48 77/132/48 126/133/48
f 126/133/49 77/132/49 79/134/49 130/135/49
f 130/135/50 79/134/50 81/136/50 134/137/50
f 134/137/51 81/136/51 83/138/51 138/139/51
f 138/139/52 83/138/52 85/140/52 142/141/52
f 142/141/53 85/140/53 87/142/53 146/143/53
f 63/144/54 87/145/54 79/146/54
f 146/143/55 87/142/55 89/147/55 150/148/55
f 150/148/56 89/147/56 59/149/56 93/150/56
f 64/151/57 72/152/57 80/153/57
f 88/154/58 153/155/58 90/156/58 58/157/58
f 153/155/59 152/158/59 91/159/59 90/156/59
f 152/158/60 151/160/60 92/161/60 91/159/60
f 151/160/61 150/148/61 93/150/61 92/161/61
f 86/162/62 149/163/62 153/155/62 88/154/62
f 149/163/63 148/164/63 152/158/63 153/155/63
f 148/164/64 147/165/64 151/160/64 152/158/64
f 147/165/65 146/143/65 150/148/65 151/160/65
f 84/166/66 145/167/66 149/163/66 86/162/66
f 145/167/67 144/168/67 148/164/67 149/163/67
f 144/168/68 143/169/68 147/165/68 148/164/68
f 143/169/69 142/141/69 146/143/69 147/165/69
f 82/170/70 141/171/70 145/167/70 84/166/70
f 141/171/71 140/172/71 144/168/71 145/167/71
f 140/172/72 139/173/72 143/169/72 144/168/72
f 139/173/73 138/139/73 142/141/73 143/169/73
f 80/174/74 137/175/74 141/171/74 82/170/74
f 137/175/75 136/176/75 140/172/75 141/171/75
f 136/176/76 135/177/76 139/173/76 140/172/76
f 135/177/77 134/137/77 138/139/77 139/173/77
f 78/178/78 133/179/78 137/175/78 80/174/78
f 133/179/79 132/180/79 136/176/79 137/175/79
f 132/180/80 131/181/80 135/177/80 136/176/80
f 131/181/81 130/135/81 134/137/81 135/177/81
f 76/182/82 129/183/82 133/179/82 78/178/82
f 129/183/83 128/184/83 132/180/83 133/179/83
f 128/184/84 127/185/84 131/181/84 132/180/84
f 127/185/85 126/133/85 130/135/85 131/181/85
f 74/186/86 125/187/86 129/183/86 76/182/86
f 125/187/87 124/188/87 128/184/87 129/183/87
f 124/188/88 123/189/88 127/185/88 128/184/88
f 123/189/89 122/131/89 126/133/89 127/185/89
f 72/190/90 121/191/90 125/187/90 74/186/90
f 121/191/91 120/192/91 124/188/91 125/187/91
f 120/192/92 119/193/92 123/189/92 124/188/92
f 119/193/93 118/129/93 122/131/93 123/189/93
f 70/194/94 117/195/94 121/191/94 72/190/94
f 117/195/95 116/196/95 120/192/95 121/191/95
f 116/196/96 115/197/96 119/193/96 120/192/96
f 115/197/97 114/127/97 118/129/97 119/193/97
f 68/198/98 113/199/98 117/195/98 70/194/98
f 113/199/99 112/200/99 116/196/99 117/195/99
f 112/200/100 111/201/100 115/197/100 116/196/100
f 111/201/101 110/125/101 114/127/101 115/197/101
f 66/202/102 109/203/102 113/199/102 68/198/102
f 109/203/103 108/204/103 112/200/103 113/199/103
f 108/204/104 107/205/104 111/201/104 112/200/104
f 107/205/105 106/123/105 110/125/105 111/201/105
f 64/206/106 105/207/106 109/203/106 66/202/106
f 105/207/107 104/208/107 108/204/107 109/203/107
f 104/208/108 103/209/108 107/205/108 108/204/108
f 103/209/109 102/121/109 106/123/109 107/205/109
f 62/210/110 101/211/110 105/207/110 64/206/110
f 101/211/111 100/212/111 104/208/111 105/207/111
f 100/212/112 99/213/112 103/209/112 104/208/112
f 99/213/113 98/119/113 102/121/113 103/209/113
f 60/214/114 97/215/114 101/211/114 62/210/114
f 97/215/115 96/216/115 100/212/115 101/211/115
f 96/216/116 95/217/116 99/213/116 100/212/116
f 95/217/117 94/117/117 98/119/117 99/213/117
f 58/218/118 90/219/118 97/215/118 60/214/118
f 90/219/119 91/220/119 96/216/119 97/215/119
f 91/220/120 92/221/120 95/217/120 96/216/120
f 92/221/121 93/114/121 94/117/121 95/217/121
f 88/222/57 58/223/57 64/151/57
f 58/223/57 60/224/57 64/151/57
f 60/224/57 62/225/57 64/151/57
f 64/151/57 66/226/57 68/227/57
f 68/227/57 70/228/57 72/152/57
f 72/152/57 74/229/57 76/230/57
f 76/230/57 78/231/57 80/153/57
f 80/153/57 82/232/57 84/233/57
f 84/233/57 86/234/57 80/153/57
f 86/234/57 88/222/57 80/153/57
f 64/151/57 68/227/57 72/152/57
f 72/152/57 76/230/57 80/153/57
f 88/222/57 64/151/57 80/153/57
f 63/144/54 61/235/54 59/236/54
f 59/236/54 89/237/54 87/145/54
f 87/145/54 85/238/54 79/146/54
f 85/238/54 83/239/54 79/146/54
f 83/239/54 81/240/54 79/146/54
f 79/146/54 77/241/54 75/242/54
f 75/242/54 73/243/54 71/244/54
f 71/244/54 69/245/54 67/246/54
f 67/246/54 65/247/54 71/244/54
f 65/247/54 63/144/54 71/244/54
f 63/144/54 59/236/54 87/145/54
f 79/146/54 75/242/54 63/144/54
f 75/242/54 71/244/54 63/144/54
